<svg width="18" height="17" viewBox="0 0 18 17" fill="none" xmlns="http://www.w3.org/2000/svg">
<rect x="1" y="0.5" width="16" height="16" rx="4" fill="#0EA5E9"/>
<rect x="1" y="0.5" width="16" height="16" rx="4" stroke="#0EA5E9" stroke-width="0.5"/>
<mask id="path-2-inside-1_255_465" fill="white">
<path fill-rule="evenodd" clip-rule="evenodd" d="M13.6949 5.2051C13.8262 5.33637 13.8999 5.51439 13.8999 5.7C13.8999 5.88562 13.8262 6.06363 13.6949 6.1949L8.09494 11.7949C7.96367 11.9261 7.78566 11.9999 7.60004 11.9999C7.41443 11.9999 7.23641 11.9261 7.10514 11.7949L4.30514 8.9949C4.17763 8.86288 4.10707 8.68606 4.10867 8.50252C4.11026 8.31898 4.18388 8.14342 4.31367 8.01363C4.44345 7.88384 4.61902 7.81023 4.80256 7.80863C4.9861 7.80704 5.16292 7.87759 5.29494 8.0051L7.60004 10.3102L12.7051 5.2051C12.8364 5.07387 13.0144 5.00015 13.2 5.00015C13.3857 5.00015 13.5637 5.07387 13.6949 5.2051Z"/>
</mask>
<path fill-rule="evenodd" clip-rule="evenodd" d="M13.6949 5.2051C13.8262 5.33637 13.8999 5.51439 13.8999 5.7C13.8999 5.88562 13.8262 6.06363 13.6949 6.1949L8.09494 11.7949C7.96367 11.9261 7.78566 11.9999 7.60004 11.9999C7.41443 11.9999 7.23641 11.9261 7.10514 11.7949L4.30514 8.9949C4.17763 8.86288 4.10707 8.68606 4.10867 8.50252C4.11026 8.31898 4.18388 8.14342 4.31367 8.01363C4.44345 7.88384 4.61902 7.81023 4.80256 7.80863C4.9861 7.80704 5.16292 7.87759 5.29494 8.0051L7.60004 10.3102L12.7051 5.2051C12.8364 5.07387 13.0144 5.00015 13.2 5.00015C13.3857 5.00015 13.5637 5.07387 13.6949 5.2051Z" fill="#262626"/>
<path d="M13.6949 5.2051L14.7558 4.1446L14.7554 4.14428L13.6949 5.2051ZM13.8999 5.7L15.3999 5.7L13.8999 5.7ZM13.6949 6.1949L14.7556 7.25556L14.7558 7.2554L13.6949 6.1949ZM8.09494 11.7949L9.15544 12.8557L9.1556 12.8556L8.09494 11.7949ZM7.10514 11.7949L6.04448 12.8556L6.04464 12.8557L7.10514 11.7949ZM4.30514 8.9949L3.22621 10.037L3.23526 10.0463L3.24448 10.0556L4.30514 8.9949ZM5.29494 8.0051L6.3556 6.94444L6.34638 6.93523L6.33701 6.92617L5.29494 8.0051ZM7.60004 10.3102L6.53938 11.3709L7.60004 12.4315L8.6607 11.3709L7.60004 10.3102ZM12.7051 5.2051L11.6446 4.14428L11.6445 4.14444L12.7051 5.2051ZM13.2 5.00015L13.2 6.50015L13.2 5.00015ZM12.6341 6.2656C12.4841 6.11558 12.3999 5.91213 12.3999 5.7L15.3999 5.7C15.3999 5.11664 15.1682 4.55717 14.7558 4.1446L12.6341 6.2656ZM12.3999 5.7C12.3999 5.48787 12.4841 5.28443 12.6341 5.1344L14.7558 7.2554C15.1682 6.84284 15.3999 6.28336 15.3999 5.7L12.3999 5.7ZM12.6343 5.13424L7.03428 10.7342L9.1556 12.8556L14.7556 7.25556L12.6343 5.13424ZM7.03444 10.7341C7.18446 10.5841 7.38791 10.4999 7.60004 10.4999V13.4999C8.1834 13.4999 8.74288 13.2682 9.15544 12.8557L7.03444 10.7341ZM7.60004 10.4999C7.81217 10.4999 8.01562 10.5841 8.16564 10.7341L6.04464 12.8557C6.4572 13.2682 7.01668 13.4999 7.60004 13.4999V10.4999ZM8.1658 10.7342L5.3658 7.93424L3.24448 10.0556L6.04448 12.8556L8.1658 10.7342ZM5.38407 7.95284C5.5298 8.10372 5.61044 8.3058 5.60861 8.51556L2.60873 8.48949C2.60371 9.06632 2.82546 9.62205 3.22621 10.037L5.38407 7.95284ZM5.60861 8.51556C5.60679 8.72531 5.52265 8.92596 5.37433 9.07429L3.25301 6.95297C2.84511 7.36087 2.61374 7.91266 2.60873 8.48949L5.60861 8.51556ZM5.37433 9.07429C5.226 9.22262 5.02535 9.30675 4.81559 9.30857L4.78953 6.30869C4.21269 6.3137 3.66091 6.54507 3.25301 6.95297L5.37433 9.07429ZM4.81559 9.30857C4.60584 9.3104 4.40375 9.22976 4.25287 9.08404L6.33701 6.92617C5.92208 6.52542 5.36636 6.30368 4.78953 6.30869L4.81559 9.30857ZM4.23428 9.06576L6.53938 11.3709L8.6607 9.24954L6.3556 6.94444L4.23428 9.06576ZM8.6607 11.3709L13.7658 6.26576L11.6445 4.14444L6.53938 9.24954L8.6607 11.3709ZM13.7656 6.26592C13.6156 6.4159 13.4122 6.50015 13.2 6.50015L13.2 3.50015C12.6167 3.50015 12.0572 3.73185 11.6446 4.14428L13.7656 6.26592ZM13.2 6.50015C12.9879 6.50015 12.7845 6.4159 12.6344 6.26592L14.7554 4.14428C14.3429 3.73185 13.7834 3.50015 13.2 3.50015L13.2 6.50015Z" fill="#FCFCFC" mask="url(#path-2-inside-1_255_465)"/>
</svg>
